<svg xmlns="http://www.w3.org/2000/svg" width="39.913" height="49.892" viewBox="0 0 39.913 49.892">
  <g id="bxs-data" transform="translate(-6 -3)">
    <path id="Trazado_3343" data-name="Trazado 3343" d="M45.913,12.978C45.913,7.57,36.776,3,25.957,3S6,7.57,6,12.978v4.989c0,5.408,9.137,9.978,19.957,9.978s19.957-4.57,19.957-9.978ZM25.957,45.408C15.138,45.408,6,40.838,6,35.43v7.484c0,5.408,9.137,9.978,19.957,9.978s19.957-4.57,19.957-9.978V35.43C45.913,40.838,36.776,45.408,25.957,45.408Z" transform="translate(0 0)" fill="#fff"/>
    <path id="Trazado_3344" data-name="Trazado 3344" d="M45.913,15c0,5.408-9.137,9.978-19.957,9.978S6,20.408,6,15v7.484c0,5.408,9.137,9.978,19.957,9.978s19.957-4.57,19.957-9.978Z" transform="translate(0 7.957)" fill="#fff"/>
  </g>
</svg>
