<svg xmlns="http://www.w3.org/2000/svg" width="50" height="49.892" viewBox="0 0 50 49.892">
  <path id="bxs-cookie" d="M51.995,25.617a2.515,2.515,0,0,0-2.135-.43,7.345,7.345,0,0,1-1.86.27,7.491,7.491,0,0,1-7.508-7.345c.012-.085.04-.335.043-.42A2.495,2.495,0,0,0,37.4,15.177,7.384,7.384,0,0,1,28,7.957a7.194,7.194,0,0,1,.248-1.79,2.5,2.5,0,0,0-2.667-3.09A25,25,0,1,0,53,27.957c0-.123-.008-.243-.018-.4a2.51,2.51,0,0,0-.988-1.94ZM19.25,12.957a3.75,3.75,0,1,1-3.75,3.75A3.75,3.75,0,0,1,19.25,12.957Zm-5,20A3.75,3.75,0,1,1,18,29.207,3.75,3.75,0,0,1,14.25,32.957Zm7.5,10a3.75,3.75,0,1,1,3.75-3.75A3.75,3.75,0,0,1,21.75,42.956ZM28,26.707a3.75,3.75,0,1,1,3.75,3.75A3.75,3.75,0,0,1,28,26.707Zm8.75,16.25a3.75,3.75,0,1,1,3.75-3.75A3.75,3.75,0,0,1,36.75,42.956Z" transform="translate(-3 -3.065)" fill="#fff"/>
</svg>
