<svg xmlns="http://www.w3.org/2000/svg" width="48.2" height="41.773" viewBox="0 0 48.2 41.773">
  <path id="desktop" d="M44.987,24.9V4.017a.814.814,0,0,0-.8-.8H4.017a.814.814,0,0,0-.8.8V24.9a.814.814,0,0,0,.8.8H44.184a.814.814,0,0,0,.8-.8ZM48.2,4.017V31.33a4.027,4.027,0,0,1-4.017,4.017H30.527a5.288,5.288,0,0,0,.4,1.945,18.518,18.518,0,0,0,.8,1.782,2.868,2.868,0,0,1,.4,1.093,1.628,1.628,0,0,1-1.607,1.607H17.673a1.628,1.628,0,0,1-1.607-1.607,2.766,2.766,0,0,1,.4-1.1,17.711,17.711,0,0,0,.8-1.758,5.259,5.259,0,0,0,.4-1.957H4.017a3.868,3.868,0,0,1-2.837-1.18A3.868,3.868,0,0,1,0,31.33V4.017A3.868,3.868,0,0,1,1.18,1.18,3.868,3.868,0,0,1,4.017,0H44.184a3.868,3.868,0,0,1,2.837,1.18A3.868,3.868,0,0,1,48.2,4.017Z" fill="#25a7ba"/>
</svg>
