<svg xmlns="http://www.w3.org/2000/svg" width="54.99" height="41.243" viewBox="0 0 54.99 41.243">
  <path id="Icon_awesome-chart-bar" data-name="Icon awesome-chart-bar" d="M35.744,32h4.124a1.478,1.478,0,0,0,1.375-1.375V16.185a1.478,1.478,0,0,0-1.375-1.375H35.744a1.478,1.478,0,0,0-1.375,1.375V30.62A1.478,1.478,0,0,0,35.744,32Zm10.311,0h4.124a1.478,1.478,0,0,0,1.375-1.375V5.875A1.478,1.478,0,0,0,50.179,4.5H46.054A1.478,1.478,0,0,0,44.68,5.875V30.62A1.478,1.478,0,0,0,46.054,32ZM15.122,32h4.124a1.478,1.478,0,0,0,1.375-1.375V23.059a1.478,1.478,0,0,0-1.375-1.375H15.122a1.478,1.478,0,0,0-1.375,1.375V30.62A1.478,1.478,0,0,0,15.122,32Zm10.311,0h4.124a1.478,1.478,0,0,0,1.375-1.375V9.312a1.478,1.478,0,0,0-1.375-1.375H25.433a1.478,1.478,0,0,0-1.375,1.375V30.62A1.478,1.478,0,0,0,25.433,32Zm27.839,6.874H6.874V6.218A1.718,1.718,0,0,0,5.155,4.5H1.718A1.718,1.718,0,0,0,0,6.218V42.306a3.437,3.437,0,0,0,3.437,3.437H53.272a1.718,1.718,0,0,0,1.718-1.718V40.587A1.718,1.718,0,0,0,53.272,38.869Z" transform="translate(0 -4.5)" fill="#fff"/>
</svg>
