<svg xmlns="http://www.w3.org/2000/svg" width="53.391" height="46.694" viewBox="0 0 53.391 46.694">
  <g id="Grupo_141" data-name="Grupo 141" transform="translate(-1403.51 -417.306)">
    <path id="Trazado_1808" data-name="Trazado 1808" d="M10.56-17.685v5.94h5.55v3.33H10.56v5.97H6.78v-5.97H1.26v-3.33H6.78v-5.94Z" transform="translate(1433.004 428.92) rotate(45)" fill="#fff"/>
    <path id="Icon_awesome-cookie-bite" data-name="Icon awesome-cookie-bite" d="M44.687,22.392A11.2,11.2,0,0,1,33.617,11.2,11.2,11.2,0,0,1,22.425.132a11.551,11.551,0,0,0-6.978,1.122L9.4,4.337A11.574,11.574,0,0,0,4.337,9.4L1.265,15.427A11.611,11.611,0,0,0,.143,22.512L1.2,29.188a11.6,11.6,0,0,0,3.253,6.386l4.794,4.793a11.557,11.557,0,0,0,6.364,3.244l6.715,1.064a11.547,11.547,0,0,0,7.049-1.117l6.051-3.082a11.578,11.578,0,0,0,5.058-5.06l3.072-6.029A11.605,11.605,0,0,0,44.687,22.392ZM15.406,32.212a2.8,2.8,0,1,1,2.8-2.8A2.8,2.8,0,0,1,15.406,32.212Zm2.8-14.005a2.8,2.8,0,1,1,2.8-2.8A2.8,2.8,0,0,1,18.207,18.207Zm14.005,11.2a2.8,2.8,0,1,1,2.8-2.8A2.8,2.8,0,0,1,32.212,29.411Z" transform="translate(1403.51 419.183)" fill="#0a5569"/>
  </g>
</svg>
