<svg xmlns="http://www.w3.org/2000/svg" width="50.759" height="50.759" viewBox="0 0 50.759 50.759">
  <path id="Icon_metro-chart-dots" data-name="Icon metro-chart-dots" d="M8.916,46.342H53.33v6.345H2.571V1.928H8.916Zm7.931-3.172a4.759,4.759,0,0,1,0-9.517c.14,0,.279.007.416.019l5.115-8.525a4.759,4.759,0,1,1,7.973,0l5.115,8.525q.207-.018.416-.019c.106,0,.211,0,.315.011l8.445-14.778a4.759,4.759,0,1,1,3.931,2.076c-.106,0-.211,0-.315-.011L39.812,35.729a4.759,4.759,0,1,1-7.917.085L26.78,27.289c-.137.012-.276.019-.416.019s-.279-.007-.416-.019l-5.115,8.525a4.758,4.758,0,0,1-3.986,7.356Z" transform="translate(-2.571 -1.928)" fill="#fff"/>
</svg>
