<svg xmlns="http://www.w3.org/2000/svg" width="91" height="50.516" viewBox="0 0 91 50.516">
  <g id="Grupo_133" data-name="Grupo 133" transform="translate(-560 -413.445)">
    <path id="Icon_awesome-user-check" data-name="Icon awesome-user-check" d="M22.1,25.258A12.629,12.629,0,1,0,9.472,12.629,12.628,12.628,0,0,0,22.1,25.258Zm8.84,3.157H29.293a17.175,17.175,0,0,1-14.385,0H13.26A13.264,13.264,0,0,0,0,41.676v4.1a4.737,4.737,0,0,0,4.736,4.736h34.73A4.737,4.737,0,0,0,44.2,45.78v-4.1A13.264,13.264,0,0,0,30.941,28.415ZM62.809,15.747l-2.743-2.772a1.17,1.17,0,0,0-1.658-.01L48.069,23.225,43.58,18.707a1.17,1.17,0,0,0-1.658-.01L39.15,21.45a1.17,1.17,0,0,0-.01,1.658l8.061,8.12a1.17,1.17,0,0,0,1.658.01L62.8,17.4a1.179,1.179,0,0,0,.01-1.658Z" transform="translate(560 413.445)" fill="#fff"/>
    <path id="Trazado_1796" data-name="Trazado 1796" d="M6,0H35L29,7H0Z" transform="translate(616 441)" fill="#0a5569"/>
    <path id="Trazado_1797" data-name="Trazado 1797" d="M16,0H35L29,7H10Z" transform="translate(605 452)" fill="#0a5569"/>
  </g>
</svg>
