<svg xmlns="http://www.w3.org/2000/svg" width="111.02" height="50.308" viewBox="0 0 111.02 50.308">
  <g id="Grupo_134" data-name="Grupo 134" transform="translate(-980 -413.445)">
    <path id="Icon_awesome-user" data-name="Icon awesome-user" d="M22.01,25.154A12.577,12.577,0,1,0,9.433,12.577,12.576,12.576,0,0,0,22.01,25.154Zm8.8,3.144H29.173a17.1,17.1,0,0,1-14.326,0H13.206A13.209,13.209,0,0,0,0,41.5v4.088a4.718,4.718,0,0,0,4.716,4.716H39.3a4.718,4.718,0,0,0,4.716-4.716V41.5A13.209,13.209,0,0,0,30.814,28.3Z" transform="translate(1013 413.445)" fill="#0a5569"/>
    <path id="Icon_awesome-user-2" data-name="Icon awesome-user" d="M22.01,25.154A12.577,12.577,0,1,0,9.433,12.577,12.576,12.576,0,0,0,22.01,25.154Zm8.8,3.144H29.173a17.1,17.1,0,0,1-14.326,0H13.206A13.209,13.209,0,0,0,0,41.5v4.088a4.718,4.718,0,0,0,4.716,4.716H39.3a4.718,4.718,0,0,0,4.716-4.716V41.5A13.209,13.209,0,0,0,30.814,28.3Z" transform="translate(1047 413.445)" fill="#0a5569" opacity="0.483"/>
    <path id="Icon_awesome-user-3" data-name="Icon awesome-user" d="M22.01,25.154A12.577,12.577,0,1,0,9.433,12.577,12.576,12.576,0,0,0,22.01,25.154Zm8.8,3.144H29.173a17.1,17.1,0,0,1-14.326,0H13.206A13.209,13.209,0,0,0,0,41.5v4.088a4.718,4.718,0,0,0,4.716,4.716H39.3a4.718,4.718,0,0,0,4.716-4.716V41.5A13.209,13.209,0,0,0,30.814,28.3Z" transform="translate(980 413.445)" fill="#fff"/>
  </g>
</svg>
