<svg xmlns="http://www.w3.org/2000/svg" width="78" height="55.753" viewBox="0 0 78 55.753">
  <g id="Grupo_135" data-name="Grupo 135" transform="translate(-1400 -408.445)">
    <path id="Icon_awesome-user" data-name="Icon awesome-user" d="M22.01,25.154A12.577,12.577,0,1,0,9.433,12.577,12.576,12.576,0,0,0,22.01,25.154Zm8.8,3.144H29.173a17.1,17.1,0,0,1-14.326,0H13.206A13.209,13.209,0,0,0,0,41.5v4.088a4.718,4.718,0,0,0,4.716,4.716H39.3a4.718,4.718,0,0,0,4.716-4.716V41.5A13.209,13.209,0,0,0,30.814,28.3Z" transform="translate(1400 413.89)" fill="#0a5569"/>
    <text id="_2nd" data-name="2nd" transform="translate(1439 438.445)" fill="#fff" font-size="30" font-family="Lato-Black, Lato" font-weight="800" letter-spacing="0.01em"><tspan x="0" y="0">2</tspan><tspan y="0" font-size="17.499" baseline-shift="9.999000313881634">nd</tspan></text>
  </g>
</svg>
