<svg xmlns="http://www.w3.org/2000/svg" width="94" height="55.753" viewBox="0 0 94 55.753">
  <g id="Grupo_136" data-name="Grupo 136" transform="translate(-140 -674.445)">
    <path id="Icon_awesome-user-tag" data-name="Icon awesome-user-tag" d="M61.964,35.856l-8.873-8.863a6.291,6.291,0,0,0-4.451-1.838H40.848A3.141,3.141,0,0,0,37.7,28.3v7.782a6.268,6.268,0,0,0,1.838,4.441l8.873,8.863a3.149,3.149,0,0,0,4.451,0L61.955,40.3A3.129,3.129,0,0,0,61.964,35.856ZM44,33.793a2.358,2.358,0,1,1,2.358-2.358A2.353,2.353,0,0,1,44,33.793ZM22.011,25.145A12.573,12.573,0,1,0,9.433,12.578,12.577,12.577,0,0,0,22.011,25.145ZM34.569,36.072V28.889a13.22,13.22,0,0,0-3.754-.609H29.174a17.105,17.105,0,0,1-14.327,0H13.206A13.225,13.225,0,0,0,0,41.5v4.088A4.718,4.718,0,0,0,4.717,50.3H39.305a4.7,4.7,0,0,0,3.724-1.857l-5.7-5.7a9.372,9.372,0,0,1-2.761-6.672Z" transform="translate(140 679.89)" fill="#0a5569"/>
    <text id="_3rd" data-name="3rd" transform="translate(198 704.445)" fill="#fff" font-size="30" font-family="Lato-Black, Lato" font-weight="800" letter-spacing="0.01em"><tspan x="0" y="0">3</tspan><tspan y="0" font-size="17.499" baseline-shift="9.999000313881634">rd</tspan></text>
  </g>
</svg>
