<svg xmlns="http://www.w3.org/2000/svg" width="77.467" height="50.308" viewBox="0 0 77.467 50.308">
  <g id="Grupo_139" data-name="Grupo 139" transform="translate(-1400 -679.89)">
    <path id="Icon_awesome-user" data-name="Icon awesome-user" d="M22.01,25.154A12.577,12.577,0,1,0,9.433,12.577,12.576,12.576,0,0,0,22.01,25.154Zm8.8,3.144H29.173a17.1,17.1,0,0,1-14.326,0H13.206A13.209,13.209,0,0,0,0,41.5v4.088a4.718,4.718,0,0,0,4.716,4.716H39.3a4.718,4.718,0,0,0,4.716-4.716V41.5A13.209,13.209,0,0,0,30.814,28.3Z" transform="translate(1400 679.89)" fill="#0a5569"/>
    <path id="Icon_awesome-tools" data-name="Icon awesome-tools" d="M29.358,23.183,22.5,16.323a4.35,4.35,0,0,0-5-.814L11.248,9.263V5.624L3.749,0,0,3.75l5.624,7.5H9.262l6.245,6.245a4.36,4.36,0,0,0,.814,5l6.861,6.861a2.178,2.178,0,0,0,3.088,0l3.088-3.088a2.189,2.189,0,0,0,0-3.088Zm-9.925-10A6.164,6.164,0,0,1,23.821,15l1.137,1.137a8.293,8.293,0,0,0,2.566-1.728A8.426,8.426,0,0,0,29.745,6.4a.7.7,0,0,0-1.178-.322l-4.359,4.359L20.23,9.772l-.662-3.978,4.359-4.359A.707.707,0,0,0,23.593.252a8.44,8.44,0,0,0-8,2.22,8.3,8.3,0,0,0-2.414,6.07l4.81,4.81a6.382,6.382,0,0,1,1.447-.17Zm-6.087,4.8-3.322-3.322L1.1,23.6a3.749,3.749,0,0,0,5.3,5.3l7.241-7.241a6.292,6.292,0,0,1-.293-3.673Zm-9.6,9.667a1.406,1.406,0,1,1,1.406-1.406A1.41,1.41,0,0,1,3.749,27.654Z" transform="translate(1447.472 680)" fill="#fff"/>
  </g>
</svg>
