<svg xmlns="http://www.w3.org/2000/svg" width="28.92" height="48.2" viewBox="0 0 28.92 48.2">
  <path id="mobile-phone" d="M17.473,43.38a3.022,3.022,0,0,0-3.013-3.013,3.013,3.013,0,1,0,2.128,5.14A2.9,2.9,0,0,0,17.473,43.38Zm7.833-6.025V10.845A1.221,1.221,0,0,0,24.1,9.64H4.82a1.221,1.221,0,0,0-1.205,1.205v26.51A1.221,1.221,0,0,0,4.82,38.56H24.1a1.221,1.221,0,0,0,1.205-1.205ZM18.075,5.423a.533.533,0,0,0-.6-.6H11.448a.533.533,0,0,0-.6.6.533.533,0,0,0,.6.6h6.025A.533.533,0,0,0,18.075,5.423Zm10.845-.6V43.38A4.888,4.888,0,0,1,24.1,48.2H4.82a4.629,4.629,0,0,1-3.389-1.431A4.639,4.639,0,0,1,0,43.38V4.82A4.629,4.629,0,0,1,1.431,1.431,4.639,4.639,0,0,1,4.82,0H24.1a4.629,4.629,0,0,1,3.389,1.431A4.639,4.639,0,0,1,28.92,4.82Z" fill="#25a7ba"/>
</svg>
