<svg xmlns="http://www.w3.org/2000/svg" width="49.892" height="49.892" viewBox="0 0 49.892 49.892">
  <path id="sale" d="M43.655,24.946l6.236,6.236L42.1,34.3l1.559,9.355L34.3,42.1l-3.118,7.8-6.236-6.236-6.236,6.236-3.118-7.8L6.236,43.655,7.8,34.3,0,31.182l6.236-6.236L0,18.709l7.8-3.118L6.236,6.236,15.591,7.8,18.709,0l6.236,6.236L31.182,0,34.3,7.8l9.355-1.559L42.1,15.591l7.8,3.118ZM17.15,12.473A4.032,4.032,0,0,0,13.837,14.3a7.151,7.151,0,0,0-1.364,4.41,7.174,7.174,0,0,0,1.364,4.41,3.919,3.919,0,0,0,6.627,0,7.174,7.174,0,0,0,1.364-4.41,7.151,7.151,0,0,0-1.364-4.41,4.032,4.032,0,0,0-3.314-1.827Zm15.591,0H31.182a.915.915,0,0,0-.366.073q-.17.073-.267.122a1,1,0,0,0-.267.267q-.17.219-.219.292t-.219.389q-.17.316-.219.414L15.835,35.86a.806.806,0,0,0,.146,1.071,1.6,1.6,0,0,0,1.17.488h1.559a1.638,1.638,0,0,0,.317-.025.775.775,0,0,0,.267-.122,1.478,1.478,0,0,0,.219-.17,1.659,1.659,0,0,0,.2-.267q.122-.194.17-.292t.2-.341q.147-.243.2-.341L34.058,14.032a.806.806,0,0,0-.146-1.071,1.6,1.6,0,0,0-1.17-.488Zm0,12.473a4.032,4.032,0,0,0-3.314,1.827,7.151,7.151,0,0,0-1.364,4.41,7.174,7.174,0,0,0,1.364,4.41,3.919,3.919,0,0,0,6.627,0,7.174,7.174,0,0,0,1.364-4.41,7.151,7.151,0,0,0-1.364-4.41A4.032,4.032,0,0,0,32.741,24.946Zm0,9.355q-.633,0-1.1-.926a4.91,4.91,0,0,1-.463-2.217,4.753,4.753,0,0,1,.463-2.192q.463-.9,1.1-.9t1.1.9a4.753,4.753,0,0,1,.463,2.192,4.91,4.91,0,0,1-.463,2.217Q33.375,34.3,32.741,34.3ZM17.15,21.828q-.633,0-1.1-.926a4.91,4.91,0,0,1-.463-2.217,4.753,4.753,0,0,1,.463-2.192q.463-.9,1.1-.9t1.1.9a4.753,4.753,0,0,1,.463,2.192,4.91,4.91,0,0,1-.463,2.217Q17.784,21.828,17.15,21.828Z" fill="#fff"/>
</svg>
