<svg xmlns="http://www.w3.org/2000/svg" width="39.437" height="48.2" viewBox="0 0 39.437 48.2">
  <path id="tablet" d="M21.91,43.818a2.222,2.222,0,1,0-.651,1.541A2.106,2.106,0,0,0,21.91,43.818Zm13.145-5.477V5.477a1.111,1.111,0,0,0-1.1-1.1H5.477a1.111,1.111,0,0,0-1.1,1.1V38.341a1.111,1.111,0,0,0,1.1,1.1H33.96a1.111,1.111,0,0,0,1.1-1.1ZM39.437,5.477V42.723A5.495,5.495,0,0,1,33.96,48.2H5.477a5.271,5.271,0,0,1-3.868-1.609A5.281,5.281,0,0,1,0,42.723V5.477A5.271,5.271,0,0,1,1.609,1.609,5.281,5.281,0,0,1,5.477,0H33.96a5.271,5.271,0,0,1,3.868,1.609,5.281,5.281,0,0,1,1.609,3.868Z" fill="#25a7ba"/>
</svg>
