<svg xmlns="http://www.w3.org/2000/svg" width="76.74" height="68.518" viewBox="0 0 76.74 68.518">
  <g id="user-data" transform="translate(-2.25 -5.625)">
    <path id="Trazado_3347" data-name="Trazado 3347" d="M31.5,9h5.481V30.926H31.5Z" transform="translate(42.009 4.847)" fill="#61d5db"/>
    <path id="Trazado_3348" data-name="Trazado 3348" d="M25.875,5.625h5.481V35.773H25.875Z" transform="translate(33.93 0)" fill="#61d5db"/>
    <path id="Trazado_3349" data-name="Trazado 3349" d="M20.25,11.25h5.481V27.694H20.25Z" transform="translate(25.851 8.079)" fill="#61d5db"/>
    <path id="Trazado_3350" data-name="Trazado 3350" d="M40.62,51.523H35.139V35.079a8.229,8.229,0,0,0-8.222-8.222H15.954a8.229,8.229,0,0,0-8.222,8.222V51.523H2.25V35.079a13.721,13.721,0,0,1,13.7-13.7H26.916a13.721,13.721,0,0,1,13.7,13.7Z" transform="translate(0 22.62)" fill="#61d5db"/>
    <path id="Trazado_3351" data-name="Trazado 3351" d="M18.2,13.356a8.222,8.222,0,1,1-8.222,8.222A8.222,8.222,0,0,1,18.2,13.356m0-5.481a13.7,13.7,0,1,0,13.7,13.7,13.7,13.7,0,0,0-13.7-13.7Z" transform="translate(3.231 3.231)" fill="#61d5db"/>
  </g>
</svg>
